<?xml version="1.0" standalone="no"?>
<!DOCTYPE svg PUBLIC "-//W3C//DTD SVG 20010904//EN"
 "http://www.w3.org/TR/2001/REC-SVG-20010904/DTD/svg10.dtd">
<svg version="1.0" xmlns="http://www.w3.org/2000/svg"
 width="626.000000pt" height="626.000000pt" viewBox="0 0 626.000000 626.000000"
 preserveAspectRatio="xMidYMid meet">
<metadata>
Created by potrace 1.11, written by Peter Selinger 2001-2013
</metadata>
<g transform="translate(0.000000,626.000000) scale(0.100000,-0.100000)"
fill="#000000" stroke="none">
<path d="M0 5805 c0 -424 3 -480 26 -444 3 6 17 9 31 6 17 -3 23 -1 19 8 -9
23 33 4 76 -36 l42 -38 -17 -37 c-10 -20 -16 -39 -13 -41 3 -3 22 11 42 31 20
20 43 36 49 36 26 0 2 52 -36 77 -22 14 -39 34 -39 44 0 10 -9 23 -19 28 -24
13 -33 102 -15 146 7 17 14 47 17 67 3 21 15 47 26 60 12 12 21 25 21 29 0 5
25 16 56 26 44 14 59 15 74 5 19 -12 60 -17 60 -7 0 2 -7 23 -16 45 -16 39
-23 45 -53 41 -7 -2 -10 2 -7 7 3 5 -6 7 -19 4 -34 -6 -31 9 13 62 l37 46 55
-5 c58 -6 110 -24 110 -39 0 -4 15 -5 34 -2 20 4 37 2 41 -4 4 -6 13 -7 23 -1
28 14 167 -14 196 -40 8 -7 -9 -100 -25 -131 -15 -30 -10 -46 29 -83 20 -20
37 -40 37 -44 0 -3 9 -16 20 -28 11 -12 29 -47 39 -77 11 -31 25 -56 33 -56 7
0 13 -3 13 -8 0 -4 20 -18 45 -31 25 -13 45 -28 45 -32 0 -5 6 -9 13 -9 14 0
37 54 37 89 0 12 5 31 10 42 8 14 7 23 -2 33 -7 7 -20 24 -28 36 -8 12 -21 28
-27 36 -16 15 -17 60 -3 69 7 4 5 16 -4 33 -8 15 -17 39 -20 54 -4 15 -19 34
-36 45 -38 22 -38 47 1 85 44 45 102 48 199 13 52 -18 93 -26 133 -25 50 1 57
-1 54 -17 -5 -34 -18 -43 -61 -43 -37 0 -45 -4 -50 -22 -3 -13 -1 -24 4 -26 6
-2 10 -8 10 -13 0 -8 19 -35 46 -63 6 -6 14 -28 18 -48 6 -31 4 -37 -13 -43
-50 -16 -80 -110 -52 -163 5 -9 10 -56 12 -104 l4 -87 -29 -13 c-43 -19 -52
-39 -36 -78 12 -28 16 -31 44 -26 17 3 41 7 53 9 40 7 74 37 94 83 10 25 19
54 19 64 0 10 4 21 9 24 16 10 32 66 18 63 -12 -2 -34 159 -23 170 3 4 14 -3
24 -15 11 -12 22 -19 25 -16 3 3 19 -2 36 -10 39 -21 67 -20 116 3 38 19 35
25 -12 22 -21 -2 -40 15 -29 26 9 9 76 10 76 1 0 -11 44 -10 56 1 15 14 84 23
84 11 0 -5 -9 -10 -20 -10 -11 0 -25 -10 -31 -22 -6 -13 -28 -36 -50 -53 -22
-16 -46 -36 -54 -42 -7 -7 -18 -13 -23 -13 -5 0 -12 -10 -16 -22 -9 -34 -7
-41 8 -35 11 5 12 -1 4 -30 -10 -38 -55 -113 -68 -113 -3 0 -19 -27 -34 -60
-20 -43 -27 -70 -22 -90 4 -24 -1 -37 -26 -66 -25 -28 -29 -39 -21 -52 6 -11
7 -27 0 -49 -13 -42 1 -60 32 -43 12 6 26 8 31 5 15 -10 40 -105 40 -156 0
-29 6 -51 15 -59 9 -8 15 -30 15 -60 0 -29 6 -52 14 -59 13 -11 13 -18 0 -54
-19 -52 -20 -118 -3 -221 10 -60 10 -82 1 -97 -21 -33 -12 -53 45 -99 67 -53
108 -128 91 -165 -8 -17 -6 -31 7 -59 16 -34 16 -38 1 -55 -9 -9 -16 -23 -16
-29 0 -7 -4 -12 -10 -12 -5 0 -10 -8 -10 -18 0 -24 -19 -42 -46 -42 -27 0 -52
-50 -49 -97 2 -18 3 -45 4 -59 0 -15 15 -40 34 -59 17 -18 37 -41 43 -52 6
-10 26 -26 45 -35 30 -16 35 -23 40 -70 6 -47 12 -71 34 -144 4 -13 1 -27 -9
-37 -14 -14 -13 -16 13 -25 22 -8 30 -18 35 -47 4 -21 4 -41 -1 -45 -4 -4 -39
-17 -78 -30 -60 -18 -321 -140 -350 -163 -5 -4 -23 -18 -38 -32 -15 -14 -33
-25 -38 -25 -14 0 -79 -53 -79 -65 0 -5 -16 -21 -35 -35 -32 -23 -35 -28 -29
-62 4 -28 2 -38 -8 -40 -7 0 7 -4 32 -7 25 -4 50 -3 55 1 6 4 42 10 80 14 55
5 68 4 58 -6 -11 -12 3 -36 54 -85 l22 -21 -30 -18 c-16 -9 -29 -20 -29 -24 0
-4 19 -16 43 -27 25 -12 43 -28 45 -40 5 -28 29 -52 58 -59 22 -6 24 -11 20
-40 -6 -38 13 -62 40 -52 17 7 54 -10 54 -24 0 -6 -7 -10 -15 -10 -18 0 -19
-20 -3 -55 13 -30 24 -31 46 -6 19 21 72 41 108 41 27 0 32 -17 9 -26 -8 -4
-15 -12 -15 -20 0 -8 -8 -14 -17 -14 -17 -1 -17 -1 0 -14 22 -17 22 -26 -1
-26 -21 0 -56 -33 -45 -43 10 -11 18 -8 43 13 26 22 59 27 61 8 4 -48 -4 -85
-22 -97 -12 -9 -19 -25 -19 -47 0 -26 -4 -33 -22 -36 -28 -4 -31 -34 -3 -31
10 1 27 -3 37 -8 19 -10 25 -39 7 -39 -5 0 -8 -3 -5 -8 2 -4 -2 -18 -10 -32
-10 -19 -13 -21 -14 -7 0 11 -8 17 -21 17 -15 0 -19 -5 -15 -15 3 -8 1 -15 -4
-15 -6 0 -10 7 -10 15 0 8 -4 15 -10 15 -5 0 -10 7 -10 15 0 8 8 15 18 15 10
0 27 7 38 15 18 13 15 14 -28 15 -34 0 -48 -4 -48 -14 0 -7 -27 -30 -59 -50
-33 -21 -67 -46 -77 -57 -11 -12 -24 -17 -36 -13 -10 3 -18 1 -18 -5 0 -6 -4
-11 -10 -11 -5 0 -10 7 -10 15 0 22 -24 29 -50 15 -29 -15 -97 -23 -104 -11
-3 5 1 22 11 38 10 19 14 37 9 49 -8 18 -8 18 -16 -3 -5 -12 -19 -27 -32 -34
-13 -6 -30 -21 -38 -32 -8 -11 -37 -42 -63 -69 -26 -27 -46 -52 -43 -57 9 -14
-43 -36 -55 -24 -15 15 -3 33 22 33 15 0 19 5 15 18 -6 18 14 95 34 132 10 19
9 21 -7 18 -11 -2 -29 -27 -47 -63 -15 -33 -32 -68 -37 -77 -5 -10 -9 -24 -9
-31 0 -22 -45 -57 -73 -57 -24 0 -27 -4 -28 -32 -4 -104 -9 -150 -17 -164 -6
-10 -9 26 -8 95 1 61 -2 111 -6 111 -3 0 -12 -17 -19 -37 -6 -21 -18 -47 -25
-58 -8 -11 -14 -27 -14 -37 0 -10 -4 -18 -10 -18 -5 0 -10 -4 -10 -10 0 -5 -9
-19 -19 -29 -19 -19 -20 -19 -33 1 -12 19 -16 19 -36 7 -12 -8 -28 -26 -35
-41 -12 -28 -31 -36 -42 -18 -11 18 -44 -7 -38 -30 4 -15 0 -20 -15 -20 -11 0
-25 -7 -32 -15 -7 -8 -29 -18 -49 -21 -43 -7 -75 -31 -83 -62 -7 -23 11 -82
24 -82 4 0 8 -4 8 -10 0 -13 -40 -13 -60 0 -8 5 -11 10 -7 10 5 0 1 7 -8 16
-11 11 -24 14 -43 10 -15 -4 -33 -7 -40 -8 -6 -1 -10 -3 -7 -6 7 -7 -22 -32
-38 -32 -22 0 -41 27 -25 33 9 4 8 6 -3 6 -9 1 -33 -6 -53 -14 -20 -8 -36 -12
-36 -8 0 4 -5 2 -11 -4 -12 -12 -52 -5 -43 8 5 9 -18 35 -71 79 -46 38 -67 71
-53 87 15 18 34 16 66 -6 36 -25 88 -34 104 -17 8 7 23 18 36 25 25 13 30 49
7 57 -10 4 -15 21 -15 55 0 42 4 51 28 66 15 10 30 22 34 27 8 12 -1 66 -13
82 -5 5 -5 23 -1 38 l7 27 27 -20 c14 -12 31 -21 38 -21 14 0 59 51 60 67 0 6
-19 26 -42 44 -57 43 -78 69 -78 97 0 12 -6 25 -14 28 -8 3 -17 23 -21 45 -6
32 -11 39 -29 39 -25 0 -103 69 -89 79 4 3 17 23 27 44 17 32 24 37 53 37 27
0 34 4 31 17 -2 9 -13 17 -26 18 -12 1 -28 7 -33 12 -15 15 -2 70 18 77 18 7
43 -10 43 -30 0 -8 5 -14 10 -14 6 0 10 -18 10 -40 0 -22 5 -40 10 -40 6 0 10
5 10 10 0 6 5 10 11 10 6 0 19 10 29 22 l18 23 44 -24 c23 -13 53 -29 65 -35
15 -7 23 -20 23 -37 0 -22 17 -86 25 -97 2 -2 15 -5 31 -8 23 -4 34 1 55 26
l27 31 23 -41 c24 -42 61 -60 122 -60 32 0 74 39 84 78 7 30 -11 91 -38 126
-17 22 -28 26 -73 26 -58 0 -96 -20 -96 -51 0 -10 -7 -19 -15 -19 -8 0 -15 -4
-15 -10 0 -5 -7 -10 -15 -10 -16 0 -34 29 -28 47 2 6 -1 14 -6 18 -6 3 -11 15
-11 26 0 21 -36 58 -55 59 -6 0 -25 13 -43 29 -17 17 -32 27 -32 23 0 -4 -11
14 -25 40 -14 26 -25 59 -25 73 0 14 -5 25 -11 25 -6 0 -9 7 -5 15 7 19 -26
37 -56 31 -54 -10 -77 -19 -72 -27 8 -13 -3 -11 -36 6 -26 13 -30 21 -30 56 0
46 14 79 35 79 7 0 15 5 17 12 3 8 16 5 43 -10 39 -24 65 -23 65 1 0 8 6 20
14 26 19 16 9 48 -24 71 -22 15 -44 20 -99 20 -66 0 -74 -2 -99 -29 -31 -32
-62 -86 -62 -107 0 -8 -5 -14 -11 -14 -5 0 -23 -15 -40 -32 l-29 -32 0 -753
c0 -746 0 -753 20 -753 11 0 20 5 20 10 0 13 37 50 50 50 6 0 26 16 46 35 31
32 54 44 54 30 0 -21 -34 -65 -49 -65 -11 0 -30 -12 -43 -28 -12 -15 -40 -38
-60 -51 l-38 -23 0 -419 0 -419 1134 0 c898 0 1135 3 1139 13 4 10 6 10 6 0 1
-15 171 -19 171 -4 0 5 -6 11 -12 14 -8 2 -9 8 -4 13 5 5 11 4 13 -3 3 -7 11
-13 19 -13 8 0 14 -4 14 -10 0 -16 577 -13 584 3 5 9 7 9 12 0 4 -10 56 -13
211 -13 112 0 203 3 201 8 -29 59 -44 88 -51 90 -4 2 -5 8 -1 13 11 18 -26 52
-73 68 -43 14 -48 19 -51 49 -2 23 1 32 12 32 10 0 13 6 10 15 -4 8 -1 21 5
29 6 7 9 20 5 29 -3 8 0 26 7 39 7 13 12 33 10 46 -2 15 3 22 15 22 16 0 15 2
-2 21 -14 16 -16 23 -6 26 6 3 10 9 6 14 -3 5 6 23 20 40 25 30 36 66 16 54
-5 -3 -10 -1 -10 4 0 6 5 11 10 11 6 0 16 11 22 25 7 16 24 29 47 35 34 9 203
91 226 109 5 5 21 12 35 16 13 4 30 13 37 20 10 10 7 13 -12 11 -14 0 -25 -5
-25 -10 0 -4 -7 -6 -15 -3 -8 4 -17 2 -20 -3 -4 -6 -13 -10 -22 -10 -8 0 -29
-7 -47 -15 -63 -30 -255 -33 -276 -4 -5 7 -127 24 -147 20 -7 -1 -24 5 -37 14
-14 9 -33 15 -43 14 -10 -1 -26 1 -36 6 -9 4 -27 5 -39 2 -26 -7 -58 18 -58
45 0 17 -16 23 -49 18 -10 -1 -11 4 -6 17 4 10 10 31 14 46 l6 29 19 -21 c11
-12 27 -21 38 -21 10 0 18 -6 18 -13 0 -7 9 -18 20 -25 18 -11 26 -9 58 13 20
14 42 25 48 25 14 0 24 32 24 78 0 22 -5 32 -15 32 -8 0 -15 6 -15 13 0 6 -6
24 -14 39 -13 25 -12 27 20 44 23 13 34 26 34 41 0 13 6 23 14 23 8 0 17 6 20
13 3 6 3 0 0 -14 -7 -32 12 -48 21 -19 3 11 17 23 30 26 13 3 29 12 36 20 6 8
20 14 30 14 27 0 34 19 13 35 -21 15 -22 13 31 30 18 5 20 34 3 39 -73 21 -98
31 -98 42 0 7 -10 14 -22 16 -19 2 -23 9 -23 41 0 23 -6 41 -15 47 -13 8 -12
11 5 24 11 9 14 16 8 16 -21 0 -15 28 7 35 11 3 28 17 39 31 22 28 100 84 117
84 6 0 33 12 58 28 26 15 57 32 68 38 12 8 16 14 9 18 -20 13 -11 23 14 18 15
-2 25 0 25 7 0 6 7 11 15 11 23 0 18 26 -7 43 -13 8 -19 19 -15 23 4 5 11 4
15 -2 18 -27 47 -33 72 -13 17 12 20 19 10 19 -29 1 -68 45 -65 74 4 36 11 42
31 25 16 -13 16 -12 5 9 -15 29 -29 28 -43 -3 -10 -22 -12 -23 -23 -8 -14 18
-40 7 -40 -17 0 -8 -6 -14 -14 -12 -9 2 -11 -3 -6 -15 4 -10 10 -27 12 -38 5
-17 3 -17 -12 4 -15 20 -16 29 -7 54 6 16 8 35 5 41 -4 5 -8 26 -10 46 -2 19
-8 36 -13 38 -5 2 -7 9 -4 16 5 12 -38 56 -55 56 -5 0 -20 -12 -32 -28 l-22
-27 7 28 c6 26 5 28 -14 22 -17 -5 -23 0 -35 29 -16 38 -37 50 -28 16 10 -36
-12 -21 -37 26 -32 62 -33 74 -4 102 13 14 24 31 24 38 0 8 5 14 10 14 6 0 10
9 10 19 0 11 5 21 10 23 7 2 7 14 -1 36 -13 38 -32 44 -23 7 8 -33 3 -32 -25
6 -22 29 -22 31 -3 25 15 -5 21 -1 26 19 8 31 25 33 19 2 -5 -24 31 -66 45
-53 4 4 -1 13 -10 20 -10 7 -19 29 -20 48 -2 24 -7 34 -15 31 -12 -5 -14 -1
-17 29 -1 6 15 17 34 23 19 7 37 20 38 30 3 11 -1 16 -10 13 -16 -6 -37 20
-38 45 0 9 7 17 15 17 8 0 31 11 51 25 21 14 49 28 63 32 14 3 31 10 38 15 17
14 12 49 -7 45 -8 -2 -14 -9 -13 -15 5 -20 -14 -13 -20 8 -4 14 -11 18 -28 15
-13 -3 -25 -9 -27 -14 -2 -5 -11 -7 -21 -4 -10 3 -22 0 -25 -6 -4 -6 -16 -11
-28 -11 -22 0 -22 0 7 80 11 30 13 46 6 48 -17 6 -13 22 5 22 13 0 13 4 -3 30
-9 17 -21 30 -25 30 -4 0 -8 7 -8 15 0 8 -4 15 -9 15 -5 0 -7 -9 -4 -20 3 -11
0 -20 -6 -20 -14 0 -15 47 -1 55 15 9 12 25 -4 25 -8 0 -21 7 -29 15 -13 13
-18 12 -40 -5 -30 -24 -82 -28 -74 -6 3 8 -2 16 -13 19 -11 3 -21 -1 -24 -9
-11 -29 -42 -11 -133 80 -93 95 -141 122 -166 97 -15 -15 -23 -14 -41 5 -19
18 -21 79 -4 90 6 4 31 6 55 5 32 -1 43 3 43 14 0 8 14 22 30 30 30 16 30 16
36 -15 6 -29 8 -30 63 -28 53 1 54 2 11 5 -47 5 -60 15 -60 50 0 12 -4 23 -8
25 -5 2 -4 19 1 38 5 19 12 29 14 23 7 -18 62 -16 69 2 4 8 15 15 25 15 10 0
19 7 19 15 0 8 7 15 15 15 23 0 32 28 27 81 -3 32 -1 49 7 49 6 0 11 17 11 40
0 22 -4 40 -9 40 -12 0 5 55 26 85 21 32 16 104 -12 157 -14 26 -25 54 -25 62
0 8 -5 16 -11 18 -13 4 -2 78 12 78 5 0 9 18 9 40 0 36 3 40 25 40 15 0 25 6
25 14 0 7 7 19 16 26 8 8 19 21 24 30 9 18 3 20 -52 22 -32 1 -39 28 -8 28 28
0 25 19 -6 30 -32 13 -34 13 -34 -2 0 -7 -7 -25 -14 -40 -15 -28 -14 -28 15
-28 22 0 29 -5 29 -20 0 -17 -7 -20 -45 -20 l-46 0 7 -49 c7 -57 -2 -124 -17
-116 -12 8 -12 45 0 45 6 0 8 38 6 88 l-4 87 -38 10 c-21 6 -44 14 -50 18 -7
5 -17 5 -23 2 -11 -7 -60 42 -60 60 0 11 -11 18 -99 60 -33 16 -41 25 -41 47
0 21 5 28 20 28 11 0 20 4 20 9 0 14 39 20 48 7 13 -22 48 -25 61 -5 8 13 23
19 51 19 28 0 40 4 40 14 0 24 37 29 64 9 23 -16 31 -33 27 -57 -2 -13 20 -36
29 -31 5 3 6 30 3 60 -5 49 -4 55 13 55 26 -1 116 -79 91 -80 -14 0 -16 -4 -7
-20 13 -24 35 -17 73 23 27 29 28 29 47 12 19 -17 21 -17 38 -2 10 10 24 17
31 17 12 0 71 56 71 67 0 3 12 17 28 33 15 15 35 38 44 51 13 20 20 22 35 13
14 -9 20 -7 28 9 9 17 23 20 135 22 69 2 127 4 130 5 14 5 96 -3 105 -10 6 -4
26 -11 45 -15 19 -4 40 -11 46 -16 17 -14 176 -10 191 4 3 3 -8 23 -25 43 -32
39 -32 69 0 61 10 -3 25 1 33 10 18 17 55 9 55 -13 0 -8 -4 -14 -10 -14 -5 0
-10 -7 -10 -15 0 -8 5 -14 12 -12 17 3 42 -53 41 -93 -1 -19 1 -38 3 -42 3 -5
7 -56 8 -115 4 -131 17 -183 57 -223 17 -17 29 -36 26 -43 -2 -6 0 -23 6 -37
6 -14 12 -38 13 -55 3 -58 4 -65 13 -65 5 0 7 17 4 39 -7 49 10 60 33 21 19
-31 54 -41 54 -15 0 8 -9 15 -20 15 -11 0 -20 5 -20 10 0 6 7 10 15 10 8 0 15
6 15 14 0 8 7 16 15 20 8 3 15 16 14 28 l0 23 -9 -22 c-10 -25 -20 -29 -37
-12 -12 12 3 68 22 81 6 4 6 17 -1 35 -8 24 -5 34 20 70 l30 43 23 -51 c17
-37 28 -49 39 -45 9 3 20 6 25 6 5 0 9 9 9 20 0 13 -5 18 -15 14 -8 -4 -15 -1
-15 6 0 6 -4 9 -8 6 -16 -9 -33 11 -39 47 -4 30 -1 40 21 62 15 15 30 40 33
57 3 16 16 41 29 54 13 12 24 34 24 48 0 14 7 31 15 38 52 43 66 64 59 88 -9
33 -6 94 6 125 13 35 76 36 90 3 7 -19 9 -14 8 22 0 25 -2 37 -5 28 -6 -22
-17 -23 -33 -3 -10 12 -10 19 -2 27 15 15 16 68 2 68 -12 0 -2 73 10 78 4 2 5
23 2 47 -2 25 1 58 8 75 11 26 18 30 54 31 22 1 33 3 24 6 -10 2 -18 11 -18
18 0 8 -9 20 -19 27 -15 10 -20 28 -22 72 -3 56 -1 60 31 86 19 16 38 26 42
24 3 -2 9 0 13 6 4 6 -6 10 -24 10 -29 0 -31 2 -31 40 0 31 4 40 18 40 13 0
14 2 4 9 -29 18 -82 -32 -82 -76 0 -7 -9 -13 -19 -13 -12 0 -21 -9 -25 -25
l-7 -26 -26 31 -26 31 22 30 c19 25 20 33 9 46 -7 9 -13 23 -13 32 0 10 -10
17 -30 19 -91 10 13 35 139 33 28 0 75 5 104 11 38 8 58 8 75 0 12 -6 35 -13
52 -17 29 -6 29 -7 11 -21 -11 -8 -30 -14 -43 -14 -16 0 -23 -6 -23 -19 0 -53
42 -101 60 -70 5 7 12 10 17 6 11 -12 -12 -42 -36 -45 -11 -2 -21 -7 -21 -12
0 -12 41 -35 57 -32 15 3 26 -15 18 -28 -5 -8 -11 -7 -21 1 -11 9 -14 7 -14
-14 0 -33 31 -52 60 -37 22 12 26 35 9 45 -6 4 -7 14 -4 24 4 9 9 31 12 49 2
19 11 45 19 58 14 21 14 24 1 24 -15 0 -32 27 -28 44 1 4 -3 14 -9 21 -14 17
1 20 185 40 131 14 210 19 670 45 99 5 190 12 203 15 22 5 22 6 22 200 l0 195
-3130 0 -3130 0 0 -455z m3064 396 c21 -23 106 -27 138 -8 15 10 22 7 42 -16
16 -19 33 -28 48 -26 13 1 37 -1 53 -4 17 -4 67 -8 112 -10 46 -1 76 -6 70
-10 -7 -5 6 -6 29 -3 28 4 52 1 70 -9 16 -8 38 -15 49 -15 11 0 33 -7 49 -15
15 -8 35 -15 43 -15 8 0 21 -7 30 -15 14 -14 13 -15 -11 -9 -19 4 -26 2 -26
-8 0 -9 23 -21 58 -32 31 -10 73 -26 92 -36 35 -18 50 -22 143 -40 44 -8 119
-58 128 -85 4 -12 47 -48 76 -63 14 -8 20 -18 16 -31 -4 -16 5 -24 46 -43 39
-18 51 -28 51 -46 0 -27 -24 -67 -63 -104 -31 -31 -47 -34 -65 -16 -14 14 -16
4 -2 -21 15 -29 1 -91 -21 -91 -11 0 -19 -9 -21 -22 -2 -12 -13 -27 -25 -33
-12 -6 -31 -22 -41 -36 -18 -22 -23 -23 -51 -13 -16 7 -33 9 -36 5 -4 -3 -24
-10 -45 -16 l-38 -10 19 -39 c10 -22 18 -41 16 -42 -1 -1 -33 -11 -72 -21 -38
-10 -71 -21 -73 -25 -2 -5 -10 -8 -18 -8 -8 0 -14 -4 -14 -10 0 -5 -7 -10 -15
-10 -8 0 -15 4 -15 10 0 5 -8 14 -18 19 -15 8 -18 6 -17 -13 0 -13 6 -30 14
-40 8 -9 12 -17 10 -19 -46 -26 -49 -27 -69 -15 -11 7 -20 16 -20 20 0 3 -8 8
-17 11 -17 4 -17 4 1 12 10 4 21 4 25 -1 3 -5 14 -15 24 -23 29 -23 19 2 -18
42 -35 38 -44 54 -25 42 17 -11 11 7 -7 21 -11 8 -13 13 -5 14 7 0 20 -9 29
-20 10 -11 21 -20 25 -20 14 0 8 23 -9 36 -17 12 -16 13 3 8 12 -3 25 -1 28 5
5 7 15 5 32 -6 19 -12 22 -18 12 -24 -16 -11 5 -12 39 -3 l22 6 -22 39 c-12
21 -27 39 -34 39 -6 0 -15 5 -18 10 -4 7 2 9 19 4 21 -5 25 -3 20 10 -3 9 -17
16 -31 16 -22 0 -24 2 -13 15 11 13 8 15 -16 15 -41 0 -17 18 29 22 l37 3 -25
28 c-16 16 -36 27 -52 27 -21 0 -24 3 -15 12 20 20 14 31 -13 24 -32 -8 -31 4
2 28 17 13 45 20 77 21 59 2 87 -6 115 -34 19 -19 92 -36 126 -29 33 6 -65 64
-133 78 -34 7 -65 17 -68 21 -8 13 -21 11 -37 -6 -8 -7 -28 -17 -43 -20 -28
-6 -28 -6 5 11 29 15 31 19 15 25 -11 3 -23 1 -27 -5 -6 -8 -10 -7 -14 2 -2 6
-12 12 -21 13 -9 1 -1 5 18 9 22 5 37 5 41 -2 4 -6 11 -8 17 -4 5 3 23 2 38
-3 45 -14 94 -21 94 -13 -1 4 -24 18 -52 32 l-51 25 32 6 c18 4 41 4 52 2 10
-3 19 0 19 6 0 6 -6 11 -14 11 -7 0 -31 7 -52 17 l-39 16 33 9 c46 12 40 16
-17 10 -60 -5 -144 6 -136 18 3 5 20 7 38 4 23 -3 27 -2 13 4 -17 7 -12 11 26
20 59 15 66 27 34 57 -37 34 -82 42 -109 17 -12 -10 -30 -22 -39 -25 -14 -5
-18 -1 -18 21 1 50 20 62 80 53 58 -9 101 -4 78 10 -7 4 -23 6 -35 3 -13 -4
-31 -3 -40 1 -15 6 -10 11 22 25 37 17 38 19 13 19 -16 1 -28 6 -28 11 0 6 -7
10 -15 10 -8 0 -15 -4 -15 -9 0 -11 -66 -22 -86 -14 -8 3 -14 11 -14 19 0 20
-11 17 -50 -11 -42 -31 -49 -32 -24 -4 l19 22 -95 -6 c-88 -5 -92 -4 -55 8 22
8 57 14 78 14 45 1 42 15 -5 26 l-33 7 35 13 c34 13 34 14 8 14 -31 1 -38 17
-10 24 9 2 5 3 -10 2 -21 -1 -25 2 -17 11 8 9 5 11 -10 7 -11 -3 -26 -11 -32
-19 -6 -8 -23 -14 -38 -14 -24 1 -25 1 -6 12 46 26 61 63 17 39 -26 -14 -45
-14 -37 -1 11 18 -43 22 -76 6 -40 -20 -61 -20 -35 -1 11 8 16 15 12 15 -9 0
-49 -21 -56 -30 -8 -10 -101 -43 -107 -37 -3 3 10 12 28 20 19 8 43 22 54 31
20 17 20 17 -2 11 -13 -4 -23 -2 -23 3 0 23 -128 -14 -157 -45 -11 -13 -24
-20 -27 -15 -3 4 6 20 20 35 14 15 20 27 14 27 -6 0 -9 4 -6 9 8 13 -35 21
-55 10 -24 -12 -79 -12 -79 1 0 7 13 8 35 4 30 -5 34 -4 29 10 -3 9 -16 16
-28 16 -11 0 -28 5 -36 11 -15 11 71 7 148 -7 29 -5 32 -3 32 19 0 41 17 48
44 18z m-564 -61 c0 -5 -4 -10 -10 -10 -5 0 -10 5 -10 10 0 6 5 10 10 10 6 0
10 -4 10 -10z m150 0 c0 -5 -2 -10 -4 -10 -3 0 -8 5 -11 10 -3 6 -1 10 4 10 6
0 11 -4 11 -10z m95 0 c-3 -5 -15 -10 -26 -10 -10 0 -19 5 -19 10 0 6 12 10
26 10 14 0 23 -4 19 -10z m212 -26 c-3 -3 -12 -4 -19 -1 -8 3 -5 6 6 6 11 1
17 -2 13 -5z m113 -38 c0 -3 -4 -8 -10 -11 -5 -3 -10 -1 -10 4 0 6 5 11 10 11
6 0 10 -2 10 -4z m-2483 -132 c-3 -3 -12 -4 -19 -1 -8 3 -5 6 6 6 11 1 17 -2
13 -5z m-512 -14 c17 -7 14 -9 -13 -9 -20 -1 -31 3 -27 9 7 12 13 12 40 0z
m1905 -31 c40 2 60 -1 60 -9 0 -24 -84 -100 -111 -100 -35 0 -66 -34 -50 -54
10 -12 10 -22 0 -50 -7 -19 -16 -33 -21 -30 -4 3 -15 -1 -23 -9 -8 -9 -23 -13
-33 -10 -10 2 -24 -3 -31 -11 -15 -18 -41 -21 -41 -6 0 6 5 19 12 30 10 16 9
23 -9 42 -16 18 -23 41 -27 104 -6 79 -6 81 19 92 35 16 66 15 91 -2 28 -20
60 -14 57 10 -1 11 0 26 3 34 4 12 9 10 25 -9 18 -22 27 -24 79 -22z m1310 12
c0 -9 -44 -41 -56 -41 -4 0 3 11 16 25 24 26 40 32 40 16z m360 -7 c0 -2 -16
-4 -36 -4 -19 0 -33 4 -30 8 5 8 66 4 66 -4z m-2020 -44 c0 -5 -7 -10 -15 -10
-8 0 -15 5 -15 10 0 6 7 10 15 10 8 0 15 -4 15 -10z m1280 -40 c0 -5 -2 -10
-4 -10 -3 0 -8 5 -11 10 -3 6 -1 10 4 10 6 0 11 -4 11 -10z m-60 -37 c13 -13
11 -13 -15 -7 -16 3 -37 13 -45 21 -13 13 -11 13 15 7 17 -3 37 -13 45 -21z
m-830 -14 c-7 -11 -14 -18 -17 -15 -8 8 5 36 17 36 7 0 7 -6 0 -21z m917 -15
c-3 -3 -12 -4 -19 -1 -8 3 -5 6 6 6 11 1 17 -2 13 -5z m2183 -20 c0 -8 -5 -12
-10 -9 -6 4 -8 11 -5 16 9 14 15 11 15 -7z m-1460 -99 c-21 -26 -31 -16 -13
11 9 15 19 21 21 15 2 -6 -2 -18 -8 -26z m-683 9 c-3 -3 -12 -4 -19 -1 -8 3
-5 6 6 6 11 1 17 -2 13 -5z m589 -35 l19 -22 -32 17 c-35 18 -41 26 -20 26 8
0 22 -10 33 -21z m145 -69 c4 0 6 -6 3 -14 -5 -12 -11 -13 -30 -4 -25 12 -23
33 3 24 8 -3 19 -6 24 -6z m-1051 -20 c0 -5 -4 -10 -10 -10 -5 0 -10 5 -10 10
0 6 5 10 10 10 6 0 10 -4 10 -10z m936 -19 c-3 -5 -15 -7 -26 -4 -28 7 -25 13
6 13 14 0 23 -4 20 -9z m-719 -43 c-3 -8 -6 -5 -6 6 -1 11 2 17 5 13 3 -3 4
-12 1 -19z m1840 -45 c-3 -10 -5 -2 -5 17 0 19 2 27 5 18 2 -10 2 -26 0 -35z
m172 -15 c1 -10 -3 -18 -9 -18 -5 0 -10 19 -9 43 1 36 2 38 9 17 4 -14 8 -33
9 -42z m-1265 -154 c9 -24 7 -28 -9 -14 -17 14 -20 30 -6 30 5 0 12 -7 15 -16z
m1173 -139 c-1 -38 -8 -43 -27 -20 -14 17 -4 55 15 55 8 0 13 -12 12 -35z
m-1177 0 c7 -8 19 -15 26 -15 8 0 11 -6 8 -15 -4 -8 -12 -15 -19 -15 -7 0 -18
-7 -25 -15 -7 -8 -25 -15 -40 -15 -15 0 -40 -6 -55 -14 -18 -10 -36 -11 -56
-6 -17 5 -36 7 -44 4 -9 -4 -12 0 -8 14 5 20 39 32 89 32 19 0 24 5 24 24 0
18 7 26 23 29 45 9 65 7 77 -8z m-2080 -15 c0 -5 -4 -10 -10 -10 -5 0 -10 5
-10 10 0 6 5 10 10 10 6 0 10 -4 10 -10z m3260 -40 c0 -5 -2 -10 -4 -10 -3 0
-8 5 -11 10 -3 6 -1 10 4 10 6 0 11 -4 11 -10z m-300 -654 c0 -8 -7 -16 -15
-20 -13 -4 -14 -2 -5 14 13 23 20 26 20 6z m-40 -106 c0 -5 -2 -10 -4 -10 -3
0 -8 5 -11 10 -3 6 -1 10 4 10 6 0 11 -4 11 -10z m-2564 -668 c-12 -11 -15 5
-8 44 l7 39 3 -39 c2 -21 1 -41 -2 -44z m-96 -48 c0 -14 -4 -23 -9 -20 -5 3
-7 15 -4 26 7 28 13 25 13 -6z m480 -9 c13 -14 18 -25 12 -25 -24 0 -11 -20
28 -42 41 -24 51 -38 25 -38 -8 0 -15 -4 -15 -9 0 -5 -3 -23 -6 -40 -6 -27 -4
-31 15 -31 11 0 21 6 21 13 0 8 9 22 20 32 11 10 20 27 20 37 0 16 3 17 22 7
l21 -11 -24 -18 c-23 -18 -23 -19 -5 -39 17 -19 17 -21 3 -21 -11 0 -17 -8
-17 -22 0 -12 -7 -28 -15 -37 -8 -9 -24 -27 -36 -40 -13 -15 -24 -19 -28 -13
-5 8 -19 7 -46 -3 -22 -8 -49 -14 -60 -15 -25 0 -51 -29 -47 -52 3 -15 -1 -16
-30 -7 -18 6 -48 15 -65 20 -28 8 -33 15 -33 39 0 23 -5 30 -19 30 -11 0 -22
-6 -24 -12 -4 -9 -6 -10 -6 -1 -1 6 6 18 14 27 17 17 20 77 5 92 -7 7 -8 38
-4 82 l7 72 33 0 c25 0 34 4 34 17 0 14 2 14 20 -2 20 -18 21 -18 43 3 12 11
40 22 62 25 22 2 43 4 46 5 3 1 16 -9 29 -23z m-383 -17 c-3 -7 -5 -2 -5 12 0
14 2 19 5 13 2 -7 2 -19 0 -25z m1438 -568 c3 -5 1 -10 -4 -10 -6 0 -11 5 -11
10 0 6 2 10 4 10 3 0 8 -4 11 -10z m-47 -408 c2 -7 -1 -12 -8 -12 -6 0 -8 5
-5 10 3 6 1 10 -4 10 -6 0 -11 -5 -11 -12 0 -6 -3 -9 -6 -5 -9 9 6 29 19 24 6
-2 13 -9 15 -15z m2 -37 c-14 -17 -40 -20 -40 -6 0 5 10 12 23 14 12 2 24 5
26 6 2 0 -2 -6 -9 -14z m200 -465 c0 -5 -7 -7 -15 -4 -8 4 -15 8 -15 10 0 2 7
4 15 4 8 0 15 -4 15 -10z m-2934 -47 c-10 -10 -19 5 -10 18 6 11 8 11 12 0 2
-7 1 -15 -2 -18z m2938 12 c3 -8 1 -15 -4 -15 -6 0 -10 7 -10 15 0 8 2 15 4
15 2 0 6 -7 10 -15z m-2704 -5 c12 -8 11 -10 -7 -10 -13 0 -23 5 -23 10 0 13
11 13 30 0z m2663 -32 c6 -21 2 -36 -7 -27 -10 11 -16 49 -8 49 5 0 12 -10 15
-22z m33 -15 c-10 -10 -19 5 -10 18 6 11 8 11 12 0 2 -7 1 -15 -2 -18z m14
-20 c0 -5 -5 -15 -10 -23 -8 -12 -10 -11 -10 8 0 12 5 22 10 22 6 0 10 -3 10
-7z m80 -13 c0 -5 -2 -10 -4 -10 -3 0 -8 5 -11 10 -3 6 -1 10 4 10 6 0 11 -4
11 -10z m-16 -26 c9 -24 7 -27 -9 -10 -17 17 -19 26 -6 26 5 0 12 -7 15 -16z
m-84 -34 c0 -5 -4 -10 -10 -10 -5 0 -10 5 -10 10 0 6 5 10 10 10 6 0 10 -4 10
-10z m-1060 -827 c0 -2 -7 -3 -15 -3 -11 0 -15 11 -15 43 l1 42 14 -40 c8 -22
15 -41 15 -42z m90 17 c13 -13 33 -20 59 -20 31 0 41 -4 46 -21 4 -11 20 -25
36 -31 16 -5 29 -14 29 -19 0 -5 18 -9 40 -9 l40 0 0 -79 c0 -70 -2 -79 -20
-84 -10 -3 -20 -2 -22 2 -2 4 -21 14 -43 22 -28 10 -41 22 -43 37 -4 25 -12
28 -30 10 -18 -18 -14 3 5 24 21 23 11 32 -32 31 -30 -1 -35 2 -41 31 -8 39
-21 56 -44 56 -21 0 -33 25 -25 51 8 24 20 24 45 -1z m330 -170 c0 -6 -9 -10
-20 -10 -13 0 -20 7 -20 20 0 18 3 19 20 10 11 -6 20 -15 20 -20z m80 -20 c0
-5 -9 -14 -20 -20 -17 -9 -20 -8 -20 10 0 13 7 20 20 20 11 0 20 -4 20 -10z
m266 -284 c27 -27 34 -42 34 -74 0 -53 -20 -69 -47 -39 -36 39 -56 77 -59 112
-3 30 0 35 17 35 12 0 36 -15 55 -34z m-70 -268 c-2 -18 -4 -41 -5 -50 -2 -36
-18 -17 -16 20 3 58 4 62 14 62 5 0 8 -15 7 -32z m-21 -268 c-3 -5 -11 -10
-16 -10 -6 0 -7 5 -4 10 3 6 11 10 16 10 6 0 7 -4 4 -10z"/>
<path d="M2997 6119 c8 -8 16 -8 30 0 16 9 14 10 -11 11 -22 0 -27 -3 -19 -11z"/>
<path d="M3814 5835 c22 -17 40 -20 32 -6 -3 5 -16 11 -28 14 -22 6 -22 5 -4
-8z"/>
<path d="M3830 5802 c0 -12 44 -52 58 -52 7 0 12 5 12 11 0 7 10 9 28 5 16 -4
7 4 -23 19 -52 26 -75 31 -75 17z"/>
<path d="M4188 5783 c7 -3 16 -2 19 1 4 3 -2 6 -13 5 -11 0 -14 -3 -6 -6z"/>
<path d="M3815 5746 c-11 -8 -17 -17 -14 -21 10 -10 60 6 56 18 -5 17 -21 18
-42 3z"/>
<path d="M3895 5720 c-3 -5 -2 -10 4 -10 5 0 18 -3 28 -7 16 -6 16 -5 4 10
-15 19 -27 22 -36 7z"/>
<path d="M3945 5720 c3 -5 8 -10 11 -10 2 0 4 5 4 10 0 6 -5 10 -11 10 -5 0
-7 -4 -4 -10z"/>
<path d="M3965 5700 c-4 -6 9 -10 31 -10 42 0 42 4 2 14 -15 3 -30 2 -33 -4z"/>
<path d="M3870 5612 c0 -5 15 -12 33 -15 17 -3 41 -9 51 -13 12 -5 17 -4 13 3
-4 6 -19 13 -34 16 -16 3 -36 9 -45 12 -10 4 -18 3 -18 -3z"/>
<path d="M4000 5560 c8 -5 22 -10 30 -10 13 0 13 1 0 10 -8 5 -22 10 -30 10
-13 0 -13 -1 0 -10z"/>
<path d="M3740 5500 c0 -5 7 -10 16 -10 8 0 12 -5 8 -11 -4 -8 1 -9 16 -4 19
6 22 4 16 -10 -4 -11 4 -26 25 -46 32 -30 49 -36 49 -19 0 6 9 6 26 0 14 -6
37 -10 52 -10 27 0 27 0 -8 22 -19 13 -37 26 -38 30 -2 5 -22 11 -43 14 -28 5
-39 11 -35 20 3 8 -3 18 -14 24 -24 13 -70 13 -70 0z"/>
<path d="M3898 5358 c30 -20 87 -24 97 -7 4 6 14 8 24 4 11 -4 13 -3 5 5 -6 6
-43 12 -82 13 l-72 3 28 -18z"/>
<path d="M3745 5220 c3 -5 8 -10 11 -10 2 0 4 5 4 10 0 6 -5 10 -11 10 -5 0
-7 -4 -4 -10z"/>
<path d="M2040 3305 c0 -18 5 -25 20 -25 23 0 25 8 6 33 -18 24 -26 21 -26 -8z"/>
<path d="M460 5896 c0 -8 5 -18 10 -21 6 -3 10 3 10 14 0 12 -4 21 -10 21 -5
0 -10 -6 -10 -14z"/>
<path d="M480 5850 c0 -5 4 -10 9 -10 6 0 13 5 16 10 3 6 -1 10 -9 10 -9 0
-16 -4 -16 -10z"/>
<path d="M557 5790 c3 -11 12 -20 20 -20 11 0 11 4 3 20 -6 11 -15 20 -19 20
-5 0 -7 -9 -4 -20z"/>
<path d="M4880 5751 c0 -13 37 -24 50 -16 6 4 8 11 5 16 -8 12 -55 12 -55 0z"/>
<path d="M602 5703 c-17 -7 -5 -23 19 -23 10 0 19 7 19 15 0 15 -14 18 -38 8z"/>
<path d="M4920 5500 c0 -22 5 -40 10 -40 6 0 10 18 10 40 0 22 -4 40 -10 40
-5 0 -10 -18 -10 -40z"/>
<path d="M5040 5446 c0 -18 33 -30 60 -21 37 12 23 35 -20 35 -28 0 -40 -4
-40 -14z"/>
<path d="M318 5313 c-3 -10 -4 -40 -3 -66 2 -45 0 -48 -27 -54 -33 -6 -35 -14
-10 -36 30 -28 74 -21 116 17 20 19 43 33 50 30 7 -3 19 2 26 11 7 8 21 15 32
15 10 0 21 6 24 14 7 19 -31 56 -58 56 -13 1 -34 7 -48 15 -37 21 -97 19 -102
-2z"/>
<path d="M1 5227 c1 -78 2 -86 10 -54 5 21 16 48 24 60 22 32 18 60 -10 74
l-25 11 1 -91z"/>
<path d="M904 5196 c-11 -45 -1 -71 29 -74 32 -4 34 7 10 59 -21 45 -30 48
-39 15z"/>
<path d="M148 5181 c-10 -10 -18 -21 -18 -25 0 -4 -12 -20 -28 -37 -30 -32
-68 -44 -89 -28 -10 9 -13 4 -13 -25 l0 -36 89 0 89 0 20 33 c27 43 28 113 2
127 -25 13 -32 12 -52 -9z"/>
<path d="M5030 4979 c0 -5 5 -7 10 -4 6 3 10 8 10 11 0 2 -4 4 -10 4 -5 0 -10
-5 -10 -11z"/>
<path d="M750 4805 c-7 -8 -27 -19 -44 -23 -46 -12 -40 -36 9 -39 62 -4 115
27 115 68 0 15 -67 10 -80 -6z"/>
<path d="M2 4660 c0 -14 2 -19 5 -12 2 6 2 18 0 25 -3 6 -5 1 -5 -13z"/>
<path d="M393 4665 c-8 -9 -9 -16 -3 -20 6 -3 10 -1 10 4 0 6 11 11 25 11 14
0 25 5 25 10 0 15 -43 11 -57 -5z"/>
<path d="M3717 4497 c-12 -5 -69 -11 -126 -13 -57 -3 -112 -9 -123 -15 -10 -5
-23 -7 -28 -4 -17 11 -80 -6 -80 -22 0 -8 -8 -17 -18 -20 -38 -10 -65 -147
-37 -190 15 -22 16 -41 10 -134 -7 -116 6 -184 43 -225 9 -10 25 -31 34 -45
16 -25 73 -49 119 -49 12 0 33 -9 45 -21 17 -16 41 -22 104 -28 45 -4 83 -4
85 0 3 3 24 10 47 14 24 4 48 9 53 10 6 1 20 3 33 3 15 2 22 8 22 22 0 21 27
40 48 33 6 -3 12 0 12 6 0 6 -13 11 -29 11 -29 0 -29 0 -28 59 2 52 5 62 30
81 20 16 35 20 53 16 32 -8 145 4 139 15 -3 4 -1 10 5 14 12 8 13 125 1 144
-11 17 14 47 43 52 30 6 40 57 19 97 -10 17 -23 32 -29 32 -6 0 -19 9 -29 20
-10 11 -23 20 -29 20 -6 0 -27 13 -46 29 -19 15 -60 38 -90 51 -30 12 -67 28
-82 36 -28 15 -132 16 -171 1z"/>
<path d="M169 4453 c0 -4 -2 -16 -4 -26 -2 -13 2 -17 13 -15 20 4 23 39 5 46
-7 2 -13 0 -14 -5z"/>
<path d="M4611 4324 c0 -11 3 -14 6 -6 3 7 2 16 -1 19 -3 4 -6 -2 -5 -13z"/>
<path d="M4620 4235 c0 -14 5 -25 10 -25 6 0 10 11 10 25 0 14 -4 25 -10 25
-5 0 -10 -11 -10 -25z"/>
<path d="M1598 4074 c-6 -5 0 -33 23 -117 8 -30 13 -36 24 -27 18 15 25 90 8
90 -7 0 -19 14 -28 30 -16 32 -18 33 -27 24z"/>
<path d="M826 3904 c-28 -19 -48 -24 -100 -24 -36 0 -67 -4 -70 -9 -3 -4 -16
-6 -28 -4 -20 4 -23 0 -25 -26 -2 -22 4 -34 17 -41 14 -7 20 -7 20 0 0 5 18
10 39 10 22 0 41 5 43 10 2 6 23 12 48 13 49 3 90 25 114 62 14 21 14 23 -4
28 -10 3 -34 -6 -54 -19z"/>
<path d="M417 3742 c-5 -7 -6 -21 -2 -31 3 -11 1 -22 -5 -26 -19 -12 -11 -35
13 -35 33 0 44 12 42 45 -3 40 -3 39 -19 26 -12 -10 -15 -8 -18 11 -2 16 -5
19 -11 10z"/>
<path d="M180 3370 c0 -5 4 -10 9 -10 6 0 13 5 16 10 3 6 -1 10 -9 10 -9 0
-16 -4 -16 -10z"/>
<path d="M2990 3360 c0 -5 5 -10 10 -10 6 0 10 5 10 10 0 6 -4 10 -10 10 -5 0
-10 -4 -10 -10z"/>
<path d="M350 3286 c0 -8 5 -18 10 -21 6 -3 10 3 10 14 0 12 -4 21 -10 21 -5
0 -10 -6 -10 -14z"/>
<path d="M3657 3264 c-4 -22 -19 -50 -38 -70 -18 -19 -31 -43 -31 -57 0 -18
-5 -24 -14 -20 -9 3 -14 -2 -14 -12 0 -26 33 -14 41 15 4 14 7 18 8 10 1 -8
-3 -29 -8 -47 -7 -24 -6 -35 5 -44 19 -16 30 -4 14 16 -7 9 -10 18 -6 22 3 3
6 1 6 -6 0 -7 4 -10 9 -6 5 3 16 -2 25 -11 9 -8 20 -13 25 -9 6 3 13 0 18 -7
9 -15 66 -48 81 -48 6 0 18 7 27 16 9 9 19 13 23 9 4 -3 -1 -11 -11 -16 -17
-10 -15 -29 4 -29 6 0 7 5 4 10 -8 13 26 13 45 -1 11 -8 12 -12 3 -16 -7 -2
-13 -13 -13 -24 0 -24 -30 -25 -31 -1 0 10 -3 12 -6 5 -8 -20 -23 -15 -23 7 0
11 -4 20 -10 20 -5 0 -7 -6 -4 -14 10 -26 -18 -30 -38 -5 -14 16 -18 18 -14 7
5 -16 -3 -22 -25 -20 -3 1 -5 -9 -5 -20 1 -14 -14 -33 -42 -55 -49 -37 -48
-40 4 -18 20 8 41 12 46 9 6 -4 14 0 19 7 6 10 9 8 9 -9 0 -15 4 -21 12 -16 6
4 9 3 6 -2 -3 -5 -1 -20 4 -34 10 -24 11 -24 18 -5 7 16 9 13 9 -15 2 -60 11
-81 35 -78 16 2 21 10 20 33 0 17 5 36 12 43 17 16 24 15 24 -3 0 -8 5 -15 10
-15 9 0 16 66 11 94 -1 5 4 13 11 17 10 6 10 9 1 9 -7 0 -10 7 -6 17 5 13 3
15 -12 9 -11 -4 -16 -4 -13 0 4 4 3 15 -2 24 -7 13 -5 21 5 30 8 7 12 16 9 21
-3 5 2 6 10 3 8 -3 18 -19 21 -35 9 -38 25 -47 25 -14 0 14 6 28 14 31 8 3 17
17 21 32 l7 27 18 -22 c23 -29 44 -30 37 -2 -4 15 0 23 14 26 10 3 19 12 19
20 0 10 -6 13 -16 9 -8 -3 -13 -2 -11 2 8 13 -12 52 -28 52 -8 0 -15 6 -15 14
0 24 -55 71 -98 85 -23 8 -43 19 -46 26 -2 7 -29 16 -58 20 -29 4 -57 11 -63
15 -5 4 -19 10 -30 12 -11 3 -27 9 -36 12 -13 6 -18 -1 -22 -30z m122 -258 c0
-7 -2 -6 -6 2 -2 6 -11 12 -19 12 -9 0 -12 5 -9 10 8 13 35 -6 34 -24z m111
-181 c0 -8 -4 -15 -10 -15 -5 0 -10 7 -10 15 0 8 5 15 10 15 6 0 10 -7 10 -15z"/>
<path d="M3433 3013 c19 -5 23 -28 7 -38 -5 -3 -10 -2 -10 2 0 5 -13 13 -28
19 -29 11 -29 11 -29 -27 0 -38 10 -51 20 -26 4 9 8 8 16 -3 9 -12 11 -12 17
3 3 9 12 17 20 17 8 0 14 5 14 10 0 6 5 9 11 8 6 -2 14 3 17 11 3 10 0 12 -12
8 -10 -4 -16 -1 -16 8 0 9 -9 15 -22 14 -17 -1 -19 -2 -5 -6z"/>
<path d="M3500 2991 c0 -5 5 -13 10 -16 6 -3 10 -2 10 4 0 5 -4 13 -10 16 -5
3 -10 2 -10 -4z"/>
<path d="M3685 2981 c-3 -5 -2 -12 3 -15 5 -3 9 1 9 9 0 17 -3 19 -12 6z"/>
<path d="M3486 2945 c4 -8 8 -15 10 -15 2 0 4 7 4 15 0 8 -4 15 -10 15 -5 0
-7 -7 -4 -15z"/>
<path d="M3450 2940 c0 -5 5 -10 11 -10 5 0 7 5 4 10 -3 6 -8 10 -11 10 -2 0
-4 -4 -4 -10z"/>
<path d="M3880 2729 c0 -5 5 -7 10 -4 6 3 10 8 10 11 0 2 -4 4 -10 4 -5 0 -10
-5 -10 -11z"/>
<path d="M4050 2700 c0 -5 5 -10 10 -10 6 0 10 5 10 10 0 6 -4 10 -10 10 -5 0
-10 -4 -10 -10z"/>
<path d="M3860 2689 c0 -5 5 -7 10 -4 6 3 10 8 10 11 0 2 -4 4 -10 4 -5 0 -10
-5 -10 -11z"/>
<path d="M4043 2625 c-19 -21 -16 -27 7 -13 11 7 20 16 20 20 0 12 -14 9 -27
-7z"/>
<path d="M3860 2610 c0 -21 17 -46 25 -38 4 4 0 17 -9 30 -10 14 -16 17 -16 8z"/>
<path d="M3916 2571 c-4 -7 -5 -15 -2 -18 9 -9 19 4 14 18 -4 11 -6 11 -12 0z"/>
<path d="M4020 2569 c0 -4 12 -16 27 -27 16 -11 25 -24 20 -28 -4 -4 -13 -2
-19 4 -17 17 -38 15 -38 -4 0 -8 7 -22 15 -30 8 -9 15 -19 15 -24 0 -13 -30 0
-31 14 -1 6 -5 -7 -9 -29 -4 -22 -6 -42 -5 -44 2 -2 18 3 34 10 28 12 30 17
25 46 -5 29 -4 33 15 33 12 0 20 4 16 9 -3 6 3 14 12 20 17 9 17 10 1 16 -10
4 -18 13 -18 21 0 8 -3 14 -7 15 -5 0 -18 2 -30 3 -13 2 -23 -1 -23 -5z"/>
<path d="M3880 2541 c0 -6 4 -13 10 -16 6 -3 7 1 4 9 -7 18 -14 21 -14 7z"/>
<path d="M1371 2531 c-19 -12 -5 -31 23 -31 31 0 53 25 30 34 -21 8 -36 7 -53
-3z"/>
<path d="M3928 2466 c-4 -18 0 -26 16 -30 27 -7 29 -3 15 28 -15 32 -25 33
-31 2z"/>
<path d="M3860 2430 c-13 -8 -12 -10 3 -10 9 0 17 5 17 10 0 12 -1 12 -20 0z"/>
<path d="M3900 2394 c0 -21 -3 -24 -13 -15 -18 14 -26 5 -20 -20 5 -18 43 -28
43 -11 0 5 7 9 15 9 8 0 15 -4 15 -9 0 -4 7 -8 15 -8 23 0 18 16 -15 50 -36
37 -40 37 -40 4z"/>
<path d="M3290 2330 c0 -5 4 -10 9 -10 6 0 13 5 16 10 3 6 -1 10 -9 10 -9 0
-16 -4 -16 -10z"/>
<path d="M3836 2321 c-4 -5 -2 -12 3 -15 5 -4 12 -2 15 3 4 5 2 12 -3 15 -5 4
-12 2 -15 -3z"/>
<path d="M3920 2320 c0 -5 5 -10 11 -10 5 0 7 5 4 10 -3 6 -8 10 -11 10 -2 0
-4 -4 -4 -10z"/>
<path d="M3920 2280 c0 -5 7 -10 15 -10 8 0 15 5 15 10 0 6 -7 10 -15 10 -8 0
-15 -4 -15 -10z"/>
<path d="M3896 2272 c-3 -6 0 -22 8 -36 11 -22 15 -24 20 -11 7 19 -19 62 -28
47z"/>
<path d="M3878 2203 c7 -3 16 -2 19 1 4 3 -2 6 -13 5 -11 0 -14 -3 -6 -6z"/>
<path d="M3490 2165 c0 -18 23 -32 28 -17 7 23 7 25 -10 28 -10 1 -18 -4 -18
-11z"/>
<path d="M3750 2099 c0 -5 5 -7 10 -4 6 3 10 8 10 11 0 2 -4 4 -10 4 -5 0 -10
-5 -10 -11z"/>
<path d="M3540 2041 c0 -23 4 -41 8 -41 12 0 14 68 2 75 -6 4 -10 -9 -10 -34z"/>
<path d="M3682 2050 c0 -14 2 -19 5 -12 2 6 2 18 0 25 -3 6 -5 1 -5 -13z"/>
<path d="M3740 2040 c-13 -9 -13 -10 0 -11 8 -1 18 -1 22 0 4 0 19 -4 32 -9
16 -6 27 -6 31 0 4 6 0 10 -7 10 -9 0 -9 3 2 10 11 7 4 10 -25 10 -22 0 -47
-5 -55 -10z"/>
<path d="M3700 1983 c0 -7 5 -13 11 -13 5 0 8 -4 5 -9 -3 -4 2 -17 10 -27 15
-18 15 -18 11 9 -3 18 0 27 9 27 14 0 20 19 7 21 -5 0 -18 2 -30 3 -14 2 -23
-3 -23 -11z"/>
<path d="M1700 1955 c-11 -13 -8 -15 20 -15 28 0 31 2 20 15 -7 8 -16 15 -20
15 -4 0 -13 -7 -20 -15z"/>
<path d="M3645 1940 c-3 -5 1 -10 9 -10 8 0 18 5 21 10 3 6 -1 10 -9 10 -8 0
-18 -4 -21 -10z"/>
<path d="M3682 1918 c3 -7 13 -15 24 -17 16 -3 17 -1 5 13 -16 19 -34 21 -29
4z"/>
<path d="M1070 1765 c0 -8 7 -15 15 -15 8 0 15 7 15 15 0 8 -7 15 -15 15 -8 0
-15 -7 -15 -15z"/>
<path d="M4180 1742 c0 -31 4 -42 15 -42 8 0 15 -4 15 -10 0 -5 7 -10 15 -10
17 0 34 -29 28 -47 -3 -7 -21 -13 -40 -13 -36 0 -36 0 -30 -39 9 -70 27 -92
112 -136 44 -23 96 -51 115 -63 19 -12 52 -30 72 -40 33 -15 52 -42 30 -42 -5
0 -24 -13 -42 -30 -18 -16 -38 -30 -44 -30 -6 1 -21 23 -34 50 -13 28 -33 55
-45 61 -12 6 -32 21 -44 32 -23 20 -23 20 -23 1 0 -11 25 -44 55 -74 33 -33
55 -63 55 -76 0 -12 7 -24 15 -28 8 -3 15 -16 15 -28 0 -36 11 -68 21 -62 5 3
9 20 9 39 0 27 8 39 40 65 37 29 43 31 70 20 16 -7 33 -9 39 -5 19 11 80 -6
86 -24 3 -10 30 -43 60 -73 57 -58 65 -80 45 -132 -5 -14 -16 -26 -24 -26 -24
0 -28 -17 -11 -49 20 -39 19 -70 -2 -94 -15 -16 -18 -37 -17 -113 1 -86 4 -95
25 -114 22 -18 23 -21 7 -30 -10 -6 -18 -22 -18 -36 0 -14 -11 -36 -24 -48
-29 -30 -38 -63 -24 -86 10 -16 18 -9 63 54 70 97 115 212 115 294 0 36 4 61
9 57 5 -3 12 -1 16 5 7 11 -5 13 -29 4 -9 -3 -16 -14 -16 -24 0 -10 -7 -20
-15 -24 -8 -3 -15 -12 -15 -21 0 -8 -4 -15 -10 -15 -5 0 -10 18 -10 39 0 31
10 52 45 99 25 33 45 64 45 70 0 5 14 42 31 82 17 40 28 74 25 77 -7 8 -26 -7
-26 -20 0 -7 -9 -13 -19 -14 -13 -1 -23 8 -30 29 -13 38 -14 41 -1 33 6 -3 10
1 10 10 0 9 -5 13 -11 9 -6 -3 -23 5 -37 19 -15 14 -42 28 -60 32 -18 4 -30
10 -27 15 3 4 -3 6 -14 3 -10 -3 -22 0 -25 6 -11 17 110 13 174 -5 30 -9 86
-22 123 -30 37 -7 76 -18 86 -23 23 -13 34 -63 21 -97 -19 -49 -12 -78 30
-119 22 -21 40 -44 40 -50 0 -22 74 -48 143 -50 37 -1 67 2 67 6 0 5 21 9 46
9 25 0 55 5 66 11 20 11 19 13 -21 31 -23 10 -45 26 -48 36 -13 31 -36 53 -45
39 -5 -8 -26 8 -68 52 -47 49 -65 62 -81 58 -15 -4 -23 0 -26 14 -3 10 -13 19
-22 20 -9 1 -5 4 9 9 l25 7 -30 12 c-26 11 -77 56 -87 78 -2 4 -21 24 -42 43
-22 19 -36 29 -32 23 4 -7 2 -13 -3 -13 -6 0 -11 4 -11 10 0 5 -15 17 -32 26
-18 9 -42 24 -53 34 -25 23 -81 57 -117 71 -16 6 -28 15 -28 19 0 5 -8 11 -17
14 -10 3 -30 17 -45 31 -25 23 -97 55 -126 55 -7 0 -44 23 -82 51 -39 28 -110
67 -158 86 -48 20 -96 44 -108 54 -13 13 -27 17 -39 13 -12 -5 -23 -1 -31 11
-13 17 -14 15 -14 -23z"/>
<path d="M3355 1390 c3 -5 10 -10 16 -10 5 0 9 5 9 10 0 6 -7 10 -16 10 -8 0
-12 -4 -9 -10z"/>
<path d="M577 1344 c-3 -5 -8 -27 -12 -49 -4 -22 -11 -47 -16 -57 -15 -28 39
-39 65 -13 11 11 13 21 7 33 -5 9 -16 35 -24 56 -8 21 -16 35 -20 30z"/>
<path d="M5240 1126 c0 -9 5 -16 10 -16 6 0 10 4 10 9 0 6 -4 13 -10 16 -5 3
-10 -1 -10 -9z"/>
<path d="M3943 905 c0 -18 19 -15 25 3 2 7 -3 12 -10 12 -8 0 -15 -7 -15 -15z"/>
<path d="M3887 882 c-15 -2 -25 -8 -22 -13 8 -12 42 -11 50 2 9 14 5 15 -28
11z"/>
<path d="M3832 859 c2 -7 10 -15 17 -17 8 -3 12 1 9 9 -2 7 -10 15 -17 17 -8
3 -12 -1 -9 -9z"/>
<path d="M3800 840 c0 -5 7 -10 15 -10 8 0 15 5 15 10 0 6 -7 10 -15 10 -8 0
-15 -4 -15 -10z"/>
<path d="M4273 711 c-12 -14 -34 -42 -50 -61 -15 -19 -33 -39 -39 -45 -6 -5
-21 -27 -33 -47 -13 -21 -26 -38 -31 -38 -5 0 -12 -10 -15 -22 -4 -11 -24 -38
-44 -59 -49 -51 -81 -95 -75 -102 6 -6 28 11 83 67 40 41 66 37 28 -5 -69 -76
-148 -205 -188 -309 -9 -25 -22 -45 -28 -45 -12 0 -31 -23 -31 -37 0 -5 45 -8
100 -8 108 0 109 0 93 58 -4 17 -11 22 -24 19 -27 -7 -24 14 9 76 37 69 65
140 52 132 -15 -9 -13 -6 25 70 22 45 31 73 25 79 -14 14 -12 26 3 27 20 1 61
58 117 161 53 99 63 137 23 89z m-203 -451 c0 -5 -5 -10 -11 -10 -5 0 -7 5 -4
10 3 6 8 10 11 10 2 0 4 -4 4 -10z"/>
<path d="M5207 693 c-13 -12 -7 -42 11 -51 9 -5 45 -12 79 -16 55 -6 65 -4 83
14 11 11 20 24 20 29 0 13 -41 21 -59 11 -18 -9 -68 -2 -77 11 -6 10 -48 12
-57 2z"/>
<path d="M4992 630 c-6 -11 -12 -35 -12 -54 0 -26 -11 -47 -45 -88 -25 -29
-56 -55 -68 -58 -30 -8 -47 -45 -47 -106 0 -28 -6 -72 -14 -97 -7 -25 -11 -49
-7 -53 3 -4 1 -4 -5 -1 -7 4 -16 -9 -22 -32 -7 -21 -23 -55 -37 -75 -45 -66
-46 -66 156 -66 178 0 180 0 174 21 -12 37 -10 156 3 172 13 15 4 74 -19 135
-12 31 -11 92 1 92 6 0 10 30 10 70 0 51 -3 69 -12 68 -7 -2 -12 3 -10 10 1 6
-2 12 -8 12 -5 0 -10 16 -10 35 0 39 -9 44 -28 15z"/>
<path d="M5285 529 c-91 -44 -119 -102 -92 -183 15 -43 14 -49 -5 -103 -17
-50 -18 -65 -9 -112 6 -30 11 -72 11 -93 0 -37 1 -38 35 -38 35 0 84 34 77 54
-2 5 4 16 11 25 8 9 18 25 21 37 7 22 76 97 83 90 7 -6 -19 -90 -31 -101 -13
-12 -19 -105 -7 -105 10 0 71 152 71 176 0 8 11 36 25 62 14 26 28 63 31 83 4
20 24 60 46 89 27 36 36 56 29 63 -7 7 -15 6 -27 -4 -24 -19 -137 -68 -146
-63 -11 7 13 57 35 72 10 8 17 23 15 35 -2 17 -12 23 -43 28 -23 4 -45 3 -52
-3 -9 -7 -17 -7 -25 0 -9 7 -25 5 -53 -9z m25 -68 c-11 -21 -30 -37 -30 -25 0
8 30 44 37 44 2 0 -1 -9 -7 -19z m-43 -63 c-3 -8 -6 -5 -6 6 -1 11 2 17 5 13
3 -3 4 -12 1 -19z m200 -53 c-12 -25 -25 -45 -29 -45 -4 0 -23 -16 -42 -36
-22 -23 -41 -34 -51 -31 -17 7 -21 27 -5 27 6 0 10 7 10 15 0 8 4 15 8 15 5 0
23 20 41 45 18 25 36 43 40 41 4 -3 13 -1 21 5 28 17 29 9 7 -36z"/>
<path d="M4680 355 c0 -8 -4 -15 -10 -15 -11 0 -34 -40 -26 -47 7 -8 56 47 56
63 0 8 -4 14 -10 14 -5 0 -10 -7 -10 -15z"/>
<path d="M3950 299 c0 -5 5 -7 10 -4 6 3 10 8 10 11 0 2 -4 4 -10 4 -5 0 -10
-5 -10 -11z"/>
<path d="M3908 267 c-9 -12 -29 -36 -43 -53 -14 -18 -25 -34 -25 -38 0 -12 30
7 35 23 3 10 13 26 23 37 33 37 44 54 36 54 -5 -1 -17 -11 -26 -23z"/>
<path d="M3784 110 c-24 -31 -48 -51 -66 -55 -15 -4 -28 -13 -28 -21 0 -8 -4
-14 -10 -14 -5 0 -10 -4 -10 -10 0 -5 20 -10 44 -10 35 0 46 4 50 18 4 10 22
45 41 77 38 63 39 65 26 65 -5 0 -26 -22 -47 -50z"/>
<path d="M4050 60 c0 -5 5 -10 10 -10 6 0 10 5 10 10 0 6 -4 10 -10 10 -5 0
-10 -4 -10 -10z"/>
<path d="M5466 55 c-9 -24 -7 -55 3 -55 12 0 20 46 11 60 -5 8 -9 6 -14 -5z"/>
<path d="M3585 30 c-3 -5 -1 -10 4 -10 6 0 11 5 11 10 0 6 -2 10 -4 10 -3 0
-8 -4 -11 -10z"/>
<path d="M3627 23 c-12 -11 -8 -23 8 -23 8 0 15 7 15 15 0 16 -12 20 -23 8z"/>
<path d="M3548 3 c12 -2 30 -2 40 0 9 3 -1 5 -23 4 -22 0 -30 -2 -17 -4z"/>
</g>
</svg>
